<?xml version="1.0" encoding="UTF-8" standalone="no"?>
<!-- Created with Inkscape (http://www.inkscape.org/) -->

<svg
   version="1.1"
   id="svg1"
   width="169.5"
   height="167.5"
   viewBox="0 0 169.5 167.5"
   sodipodi:docname="guild-host-black.svg"
   inkscape:version="1.4.2 (f4327f4, 2025-05-13)"
   xmlns:inkscape="http://www.inkscape.org/namespaces/inkscape"
   xmlns:sodipodi="http://sodipodi.sourceforge.net/DTD/sodipodi-0.dtd"
   xmlns="http://www.w3.org/2000/svg"
   xmlns:svg="http://www.w3.org/2000/svg">
  <defs
     id="defs1" />
  <sodipodi:namedview
     id="namedview1"
     pagecolor="#ffffff"
     bordercolor="#000000"
     borderopacity="0.25"
     inkscape:showpageshadow="2"
     inkscape:pageopacity="0.0"
     inkscape:pagecheckerboard="0"
     inkscape:deskcolor="#d1d1d1"
     showgrid="false"
     inkscape:zoom="5.6831137"
     inkscape:cx="120.00464"
     inkscape:cy="92.906817"
     inkscape:window-width="3171"
     inkscape:window-height="1690"
     inkscape:window-x="4468"
     inkscape:window-y="97"
     inkscape:window-maximized="0"
     inkscape:current-layer="g1">
    <inkscape:grid
       id="grid1"
       units="px"
       originx="0"
       originy="0"
       spacingx="1"
       spacingy="1"
       empcolor="#0099e5"
       empopacity="0.30196078"
       color="#0099e5"
       opacity="0.14901961"
       empspacing="5"
       enabled="true"
       visible="false" />
  </sodipodi:namedview>
  <g
     inkscape:groupmode="layer"
     inkscape:label="Image"
     id="g1">
    <g
       id="g12"
       transform="translate(-55.002693,-56.526703)">
      <path
         style="opacity:1;fill:#000000"
         id="path1"
         sodipodi:type="arc"
         sodipodi:cx="140.07555"
         sodipodi:cy="140.07556"
         sodipodi:rx="85.072853"
         sodipodi:ry="84.921745"
         sodipodi:start="1.7532489"
         sodipodi:end="4.5323321"
         sodipodi:arc-type="arc"
         d="M 124.63976,223.58775 A 85.072853,84.921745 0 0 1 55.002754,139.97384 85.072853,84.921745 0 0 1 124.84023,56.526703"
         sodipodi:open="true" />
      <path
         style="opacity:1;fill:#000000"
         id="path2"
         sodipodi:type="arc"
         sodipodi:cx="186.61629"
         sodipodi:cy="94.517006"
         sodipodi:rx="37.323257"
         sodipodi:ry="37.0966"
         sodipodi:start="4.7930556"
         sodipodi:end="4.6410999"
         sodipodi:open="true"
         sodipodi:arc-type="arc"
         d="M 189.62376,57.541037 A 37.323257,37.0966 0 0 1 223.90556,96.099723 37.323257,37.0966 0 0 1 186.44129,131.6132 37.323257,37.0966 0 0 1 149.31372,95.7521 37.323257,37.0966 0 0 1 183.9578,57.514631" />
      <path
         style="opacity:1;fill:#000000"
         id="path3"
         sodipodi:type="arc"
         sodipodi:cx="140.60402"
         sodipodi:cy="140.56392"
         sodipodi:rx="85.161369"
         sodipodi:ry="84.77478"
         sodipodi:start="0.20128068"
         sodipodi:end="1.3769132"
         sodipodi:open="true"
         sodipodi:arc-type="arc"
         d="m 224.04609,157.51246 a 85.161369,84.77478 0 0 1 -67.03397,66.23785" />
      <rect
         style="opacity:1;fill:#000000"
         id="rect3"
         width="10.426335"
         height="160.32381"
         x="119.82731"
         y="59.8381" />
      <path
         style="opacity:1;fill:#000000"
         id="path4"
         sodipodi:type="arc"
         sodipodi:cx="156.03799"
         sodipodi:cy="155.83369"
         sodipodi:rx="5.2131681"
         sodipodi:ry="4.835402"
         sodipodi:start="6.2102889"
         sodipodi:end="6.2033932"
         sodipodi:open="true"
         sodipodi:arc-type="arc"
         d="m 161.23732,155.48152 a 5.2131681,4.835402 0 0 1 -4.81068,5.17412 5.2131681,4.835402 0 0 1 -5.58663,-4.45315 5.2131681,4.835402 0 0 1 4.79142,-5.18947 5.2131681,4.835402 0 0 1 5.60315,4.43526" />
      <path
         style="opacity:1;fill:#000000"
         id="path4-2"
         sodipodi:type="arc"
         sodipodi:cx="219.15063"
         sodipodi:cy="155.88245"
         sodipodi:rx="5.2131681"
         sodipodi:ry="4.835402"
         sodipodi:start="6.2102889"
         sodipodi:end="6.2033932"
         sodipodi:open="true"
         sodipodi:arc-type="arc"
         d="m 224.34996,155.53027 a 5.2131681,4.835402 0 0 1 -4.81068,5.17412 5.2131681,4.835402 0 0 1 -5.58663,-4.45315 5.2131681,4.835402 0 0 1 4.79142,-5.18947 5.2131681,4.835402 0 0 1 5.60315,4.43526" />
      <path
         style="opacity:1;fill:#000000"
         id="path4-2-2"
         sodipodi:type="arc"
         sodipodi:cx="155.9568"
         sodipodi:cy="219.00195"
         sodipodi:rx="5.133245"
         sodipodi:ry="4.835402"
         sodipodi:start="6.2102889"
         sodipodi:end="6.2033932"
         sodipodi:open="true"
         sodipodi:arc-type="arc"
         d="m 161.07641,218.64978 a 5.133245,4.835402 0 0 1 -4.73692,5.17412 5.133245,4.835402 0 0 1 -5.50098,-4.45315 5.133245,4.835402 0 0 1 4.71796,-5.18947 5.133245,4.835402 0 0 1 5.51724,4.43526" />
      <path
         style="opacity:1;fill:#000000"
         id="path4-8"
         sodipodi:type="arc"
         sodipodi:cx="124.89865"
         sodipodi:cy="60.255672"
         sodipodi:rx="5.3563485"
         sodipodi:ry="3.6899598"
         sodipodi:start="4.686019"
         sodipodi:end="1.5934761"
         sodipodi:open="true"
         sodipodi:arc-type="arc"
         d="m 124.75742,56.566996 a 5.3563485,3.6899598 0 0 1 4.7529,1.81177 5.3563485,3.6899598 0 0 1 0.01,3.742077 5.3563485,3.6899598 0 0 1 -4.74316,1.82384" />
      <path
         style="opacity:1;fill:#000000"
         id="path4-8-1"
         sodipodi:type="arc"
         sodipodi:cx="124.77312"
         sodipodi:cy="219.95831"
         sodipodi:rx="5.5391383"
         sodipodi:ry="3.6899598"
         sodipodi:start="4.686019"
         sodipodi:end="1.5934761"
         sodipodi:open="true"
         sodipodi:arc-type="arc"
         d="m 124.62707,216.26964 a 5.5391383,3.6899598 0 0 1 4.91509,1.81177 5.5391383,3.6899598 0 0 1 0.0104,3.74207 5.5391383,3.6899598 0 0 1 -4.90502,1.82384" />
      <rect
         style="opacity:1;fill:#000000"
         id="rect5"
         width="8.356822"
         height="63.659321"
         x="150.83929"
         y="155.33858"
         ry="0" />
      <rect
         style="opacity:1;fill:#000000"
         id="rect6"
         width="63.712776"
         height="11.752533"
         x="156.01288"
         y="150.99397" />
      <rect
         style="opacity:1;fill:#000000"
         id="rect7"
         width="9.0301838"
         height="57.592422"
         x="158.85074"
         y="162.38252"
         ry="0" />
      <rect
         style="opacity:1;fill:#000000"
         id="rect8"
         width="63.893471"
         height="2.8495204"
         x="158.0079"
         y="160.05475" />
      <rect
         style="opacity:1;fill:#000000"
         id="rect9"
         width="16.254307"
         height="51.451904"
         x="166.5966"
         y="161.78052" />
      <rect
         style="opacity:1;fill:#000000"
         id="rect10"
         width="19.424891"
         height="37.565502"
         x="181.92783"
         y="161.70026" />
      <rect
         style="opacity:1;fill:#000000"
         id="rect11"
         width="14.167334"
         height="18.702486"
         x="200.83098"
         y="161.74039" />
      <rect
         style="opacity:1;fill:#000000"
         id="rect12"
         width="7.143868"
         height="6.8629293"
         x="212.99161"
         y="161.82065" />
    </g>
  </g>
</svg>
