<svg height="106"
    width="106" xmlns="http://www.w3.org/2000/svg"
    xmlns:xlink="http://www.w3.org/1999/xlink">

    <path
        d="m0-52.5a1.50015 1.50015 0 0 0 -1.2871094.728516l-2.6699218 4.449218c-.4678247.03885-.9345065.08043-1.3984376.132813l-3.4824218-3.837891a1.50015 1.50015 0 0 0 -1.0976563-.492187 1.50015 1.50015 0 0 0 -.3066411.0293 1.50015 1.50015 0 0 0 -1.11914.964843l-1.75 4.882813c-.451912.130143-.903284.261167-1.34961.404297l-4.162109-3.083985a1.50015 1.50015 0 0 0 -.865234-.294922 1.50015 1.50015 0 0 0 -.603516.113282 1.50015 1.50015 0 0 0 -.908203 1.166012l-.767578 5.144532c-.411043.213044-.820643.427747-1.22461.652343l-4.701171-2.220703a1.50015 1.50015 0 0 0 -.666016-.142578 1.50015 1.50015 0 0 0 -1.472656 1.572266l.253906 5.21289c-.356332.284592-.708749.572683-1.056641.867188l-5.064453-1.265625a1.50015 1.50015 0 0 0 -.339843-.04492 1.50015 1.50015 0 0 0 -1.478516 1.863281l1.265625 5.064453c-.294505.347892-.582596.700309-.867188 1.056641l-5.21289-.253906a1.50015 1.50015 0 0 0 -1.429688 2.138672l2.220703 4.701171c-.224596.403967-.439299.813567-.652343 1.22461l-5.144532.767576a1.50015 1.50015 0 0 0 -.984375 2.376953l3.083985 4.162109c-.14313.446326-.274154.897698-.404297 1.34961l-4.882813 1.75a1.50015 1.50015 0 0 0 -.501953 2.5234374l3.837891 3.4824218c-.05239.4639311-.09396.9306129-.132813 1.3984376l-4.449218 2.6699218a1.50015 1.50015 0 0 0 0 2.5742188l4.449218 2.6699218c.03885.4678247.08043.9345065.132813 1.3984376l-3.837891 3.4824218a1.50015 1.50015 0 0 0 .501953 2.5234374l4.882813 1.75c.130143.451912.261167.903284.404297 1.34961l-3.083985 4.162109a1.50015 1.50015 0 0 0 .984375 2.376953l5.144532.767578c.213044.411043.427747.820643.652343 1.22461l-2.220703 4.701171a1.50015 1.50015 0 0 0 1.429688 2.138672l5.21289-.253906c.284592.356332.572683.708749.867188 1.056641l-1.265625 5.064453a1.50015 1.50015 0 0 0 1.818359 1.818359l5.064453-1.265625c.347892.294505.700309.582596 1.056641.867188l-.253906 5.21289a1.50015 1.50015 0 0 0 2.138672 1.429688l4.701171-2.220703c.403967.224596.813567.439299 1.22461.652343l.767578 5.144532a1.50015 1.50015 0 0 0 2.376953.984375l4.162109-3.083985c.446326.14313.897698.274154 1.34961.404297l1.75 4.882813a1.50015 1.50015 0 0 0 2.5234374.501953l3.4824218-3.837891c.4639311.05239.9306129.09396 1.3984376.132813l2.6699218 4.449218a1.50015 1.50015 0 0 0 2.5742188 0l2.6699218-4.449218c.4678247-.03885.9345065-.08043 1.3984376-.132813l3.4824218 3.837891a1.50015 1.50015 0 0 0 2.5234374-.501953l1.75-4.882813c.451912-.130143.903284-.261167 1.34961-.404297l4.162109 3.083985a1.50015 1.50015 0 0 0 2.376953-.984375l.767578-5.144532c.411043-.213044.820643-.427747 1.22461-.652343l4.701171 2.220703a1.50015 1.50015 0 0 0 2.138672-1.429688l-.253906-5.21289c.356332-.284592.708749-.572683 1.056641-.867188l5.064453 1.265625a1.50015 1.50015 0 0 0 1.818359-1.818359l-1.265625-5.064453c.294505-.347892.582596-.700309.867188-1.056641l5.21289.253906a1.50015 1.50015 0 0 0 1.429688-2.138672l-2.220703-4.701171c.224596-.403967.439299-.813567.652343-1.22461l5.144532-.767578a1.50015 1.50015 0 0 0 .984375-2.376953l-3.083985-4.162109c.14313-.446326.274154-.897698.404297-1.34961l4.882813-1.75a1.50015 1.50015 0 0 0 .501953-2.5234374l-3.837891-3.4824218c.05239-.4639311.09396-.9306129.132813-1.3984376l4.449218-2.6699218a1.50015 1.50015 0 0 0 0-2.5742188l-4.449218-2.6699218c-.03885-.4678247-.08043-.9345065-.132813-1.3984376l3.837891-3.4824218a1.50015 1.50015 0 0 0 -.501953-2.5234374l-4.882813-1.75c-.130143-.451912-.261167-.903284-.404297-1.34961l3.083985-4.162109a1.50015 1.50015 0 0 0 -.984375-2.376953l-5.144532-.767578c-.213044-.411043-.427747-.820643-.652343-1.22461l2.220703-4.701171a1.50015 1.50015 0 0 0 -1.429688-2.138672l-5.21289.253906c-.284592-.356332-.572683-.708749-.867188-1.056641l1.265625-5.064453a1.50015 1.50015 0 0 0 -1.458984-1.863281 1.50015 1.50015 0 0 0 -.359375.04492l-5.064453 1.265625c-.347892-.294505-.700309-.582596-1.056641-.867188l.253906-5.21289a1.50015 1.50015 0 0 0 -1.132812-1.527344 1.50015 1.50015 0 0 0 -.339844-.04492 1.50015 1.50015 0 0 0 -.666016.142578l-4.701171 2.220703c-.403967-.224596-.813567-.439299-1.22461-.652343l-.767578-5.144532a1.50015 1.50015 0 0 0 -.908203-1.166015 1.50015 1.50015 0 0 0 -.603516-.113282 1.50015 1.50015 0 0 0 -.865234.294922l-4.162109 3.083985c-.446326-.14313-.897698-.274154-1.34961-.404297l-1.75-4.882813a1.50015 1.50015 0 0 0 -1.11914-.964843 1.50015 1.50015 0 0 0 -.3066411-.0293 1.50015 1.50015 0 0 0 -1.0976563.492187l-3.4824218 3.837891c-.4639311-.05239-.9306129-.09396-1.3984376-.132813l-2.6699218-4.449215a1.50015 1.50015 0 0 0 -1.2871094-.728516zm-7.0859375 14.65625 4.9648437 4.964844a3.0003 3.0003 0 0 0 4.2421876 0l4.9628906-4.962891c8.6794596 1.604616 16.3201186 6.102864 21.8925776 12.464844h-24.1894526v-4.216797h-9.9179688v4.216797h-23.8417966c5.570937-6.361403 13.208819-10.86229 21.8867185-12.466797zm-25.5976565 21.603516h27.5527346v2.99414h-16.6230466c-4.308929 0-5.541016 1.192638-5.541016 5.7226565v11.4433594c0 4.3678922 1.195697 5.7207031 5.357422 5.7207031h10.736328c-7.435506 4.422186-14.790785 7.667846-22.068359 9.765625-3.324112-5.691561-5.230469-12.3176438-5.230469-19.40625 0-1.6847984.1231-3.3375184.333984-4.9628906l6.240235-3.1796875a3.0003 3.0003 0 0 0 1.3125-4.0351559zm37.4707034 0h27.8964846l-2.070313 4.0625a3.0003 3.0003 0 0 0 1.3125 4.0351559l6.242188 3.1816406c.209655 1.6247824.332031 3.2771922.332031 4.9609375 0 6.9219625-1.820641 13.40094-5 19.001953-8.143541-2.019071-15.951395-5.131859-23.417969-9.361328h11.853516c4.68005 0 5.757812-1.3607239 5.757812-5.7207031v-11.4433594c0-4.7144715-.93496-5.7226565-5.726562-5.7226565h-17.1796876zm-21.0058594 8.677734h11.1230469v3.3320312h-12.7402349v-1.6660156c0-1.2610834.364312-1.6660156 1.617188-1.6660156zm21.0058594 0h11.7285156c1.113189 0 1.505859.3752862 1.505859 1.6660156v1.6660156h-13.2343746zm-22.6230474 8.22070312h12.7402349v3.36132808h-11.0781249c-1.287868.0000001-1.66211-.427793-1.66211-1.6816406zm22.6230474 0h13.2343746v1.67968748c0 1.2949274-.413176 1.6816407-1.550781 1.6816406h-11.6835936zm-9.8476563 14.60546888v13.353516h9.8476563v-13.261719c7.3571186 4.899609 15.1752126 8.504701 23.4472656 10.833984-.08055.0868-.156943.177616-.238281.263672l-6.955078-1.101563a3.0003 3.0003 0 0 0 -3.431641 2.494141l-1.099609 6.935547c-5.001379 2.372789-10.590328 3.71875-16.509766 3.71875-5.9192421 0-11.508611-1.345939-16.509766-3.71875l-1.099609-6.935547a3.0003 3.0003 0 0 0 -3.431641-2.494141l-6.949218 1.101563c-.158288-.167436-.307598-.343413-.462891-.513672 8.57768-2.419356 16.37949-5.971624 23.3925781-10.675781z"
        stroke-linejoin="round" transform="translate(53 53)" />
</svg>