<svg height="106" width="106" xmlns="http://www.w3.org/2000/svg">
    <path
        d="m-1.2871094-51.771484-2.6699218 4.449218c-.4678243.03885-.9345069.08043-1.3984376.132813l-3.4824218-3.837891c-.7567751-.834273-2.1421204-.561288-2.5234374.501953l-1.75 4.882813c-.451912.130143-.903284.261167-1.34961.404297l-4.162109-3.083985c-.903471-.670015-2.211259-.137344-2.376953.984375l-.767578 5.144532c-.411043.213043-.820643.427748-1.22461.652343l-4.701171-2.220703c-.978352-.460471-2.195154.259701-2.138672 1.429688l.253906 5.21289c-.356332.284592-.708749.572683-1.056641.867188l-5.064453-1.265625c-1.006646-.252676-2.112093.641597-1.818359 1.818359l1.265625 5.064453c-.294505.347892-.582596.700309-.867188 1.056641l-5.21289-.253906c-1.130976-.05514-1.91299 1.114677-1.429688 2.138672l2.220703 4.701171c-.224595.403967-.4393.813567-.652343 1.22461l-5.144532.767578c-1.120135.16677-1.65863 1.467067-.984375 2.376953l3.083985 4.162109c-.14313.446326-.274154.897698-.404297 1.34961l-4.882813 1.75c-1.066266.381953-1.340881 1.7625095-.501953 2.5234374l3.837891 3.4824218c-.05239.4639307-.09396.9306133-.132813 1.3984376l-4.449218 2.6699218c-.972754.58238132-.972754 1.99183748 0 2.5742188l4.449218 2.6699218c.03885.4678243.08043.9345069.132813 1.3984376l-3.837891 3.4824218c-.838928.7609279-.564313 2.1414844.501953 2.5234374l4.882813 1.75c.130143.451912.261167.903284.404297 1.34961l-3.083985 4.162109c-.674255.909886-.13576 2.210183.984375 2.376953l5.144532.767578c.213043.411043.427748.820643.652343 1.22461l-2.220703 4.701171c-.483302 1.023995.298712 2.193811 1.429688 2.138672l5.21289-.253906c.284592.356332.572683.708749.867188 1.056641l-1.265625 5.064453c-.273579 1.097905.720454 2.091938 1.818359 1.818359l5.064453-1.265625c.347892.294505.700309.582596 1.056641.867188l-.253906 5.21289c-.05514 1.130976 1.114677 1.91299 2.138672 1.429688l4.701171-2.220703c.403967.224595.813567.4393 1.22461.652343l.767578 5.144532c.16677 1.120135 1.467067 1.65863 2.376953.984375l4.162109-3.083985c.446326.14313.897698.274154 1.34961.404297l1.75 4.882813c.381953 1.066266 1.7625095 1.340881 2.5234374.501953l3.4824218-3.837891c.4639307.05239.9306133.09396 1.3984376.132813l2.6699218 4.449218c.58238132.972754 1.99183748.972754 2.5742188 0l2.6699218-4.449218c.4678243-.03885.9345069-.08043 1.3984376-.132813l3.4824218 3.837891c.7609279.838928 2.1414844.564313 2.5234374-.501953l1.75-4.882813c.451912-.130143.903284-.261167 1.34961-.404297l4.162109 3.083985c.909886.674255 2.210183.13576 2.376953-.984375l.767578-5.144532c.411043-.213043.820643-.427748 1.22461-.652343l4.701171 2.220703c1.023995.483302 2.193811-.298712 2.138672-1.429688l-.253906-5.21289c.356332-.284592.708749-.572683 1.056641-.867188l5.064453 1.265625c1.097905.273579 2.091938-.720454 1.818359-1.818359l-1.265625-5.064453c.294505-.347892.582596-.700309.867188-1.056641l5.21289.253906c1.130976.05514 1.91299-1.114677 1.429688-2.138672l-2.220703-4.701171c.224595-.403967.4393-.813567.652343-1.22461l5.144532-.767578c1.120135-.16677 1.65863-1.467067.984375-2.376953l-3.083985-4.162109c.14313-.446326.274154-.897698.404297-1.34961l4.882813-1.75c1.066266-.381953 1.340881-1.7625095.501953-2.5234374l-3.837891-3.4824218c.05239-.4639307.09396-.9306133.132813-1.3984376l4.449218-2.6699218c.972754-.58238132.972754-1.99183748 0-2.5742188l-4.449218-2.6699218c-.03885-.4678243-.08043-.9345069-.132813-1.3984376l3.837891-3.4824218c.838928-.7609279.564313-2.1414844-.501953-2.5234374l-4.882813-1.75c-.130143-.451912-.261167-.903284-.404297-1.34961l3.083985-4.162109c.674255-.909886.13576-2.210183-.984375-2.376953l-5.144532-.767578c-.213043-.411043-.427748-.820643-.652343-1.22461l2.220703-4.701171c.483302-1.023995-.298712-2.193811-1.429688-2.138672l-5.21289.253906c-.284592-.356332-.572683-.708749-.867188-1.056641l1.265625-5.064453c.292794-1.173593-.808259-2.071275-1.818359-1.818359l-5.064453 1.265625c-.347892-.294505-.700309-.582596-1.056641-.867188l.253906-5.21289c.05534-1.145019-1.136368-1.901433-2.138672-1.429688l-4.701171 2.220703c-.403967-.224595-.813567-.4393-1.22461-.652343l-.767578-5.144532c-.165693-1.121728-1.473487-1.654387-2.376953-.984375l-4.162109 3.083985c-.446326-.14313-.897698-.274154-1.34961-.404297l-1.75-4.882813c-.381319-1.063246-1.7666659-1.336222-2.5234374-.501953l-3.4824218 3.837891c-.4639307-.05239-.9306133-.09396-1.3984376-.132813l-2.6699218-4.449218c-.58041968-.967686-1.99380599-.967675-2.5742188 0zm1.2871094 8.771484c1.6568542 0 3 1.343146 3 3s-1.3431458 3-3 3-3-1.343146-3-3 1.3431458-3 3-3zm-7.0859375 5.15625 4.9648437 4.964844c1.17158849 1.171104 3.07059911 1.171104 4.2421876 0l4.9628906-4.962891c8.6794506 1.604615 16.3201246 6.10287 21.8925776 12.464844h-24.1894526v-4.216797h-9.9179688v4.216797h-23.8417966c5.570931-6.361397 13.208828-10.862292 21.8867185-12.466797zm-25.5976565 21.603516h27.5527346v2.99414h-16.6230466c-4.308925 0-5.541016 1.192643-5.541016 5.7226565v11.4433594c0 4.3678878 1.195701 5.7207031 5.357422 5.7207031h10.736328c-7.435498 4.422182-14.790793 7.667848-22.068359 9.765625-3.324109-5.691555-5.230469-12.3176509-5.230469-19.40625 0-1.6847967.123101-3.3375201.333984-4.9628906l6.240235-3.1796875c1.476771-.7517902 2.064416-2.5584499 1.3125-4.0351559zm37.4707034 0h27.8964846l-2.070313 4.0625c-.751916 1.476706-.164271 3.2833657 1.3125 4.0351559l6.242188 3.1816406c.209655 1.6247808.332031 3.2771939.332031 4.9609375 0 6.9219556-1.820644 13.400946-5 19.001953-8.143533-2.019069-15.951402-5.131863-23.417969-9.361328h11.853516c4.680045 0 5.757812-1.3607283 5.757812-5.7207031v-11.4433594c0-4.7144665-.934965-5.7226565-5.726562-5.7226565h-17.1796876zm-41.9023434 1.027343c1.575146.512148 2.437204 2.203916 1.925781 3.779297-.512148 1.5751461-2.203915 2.4372046-3.779297 1.9257815-1.575146-.5121475-2.437204-2.2039155-1.925781-3.7792965.548215-1.688234 2.330522-2.398156 3.779297-1.925782zm78.009765 1.925782c.511423 1.575381-.350635 3.267149-1.925781 3.7792965-1.575382.5114231-3.267149-.3506354-3.779297-1.9257815-.511423-1.575381.350635-3.267149 1.925781-3.779297 1.448843-.472385 3.231099.237597 3.779297 1.925782zm-57.113281 5.724609h11.1230469v3.3320312h-12.7402349v-1.6660156c0-1.2610821.364313-1.6660156 1.617188-1.6660156zm21.0058594 0h11.7285156c1.113188 0 1.505859.3752875 1.505859 1.6660156v1.6660156h-13.2343746zm-22.6230474 8.22070312h12.7402349v3.36132808h-11.0781249c-1.287867.0000001-1.66211-.4277942-1.66211-1.6816406zm22.6230474 0h13.2343746v1.67968748c0 1.2949261-.413177 1.6816407-1.550781 1.6816406h-11.6835936zm-9.8476563 14.60546888v13.353516h9.8476563v-13.261719c7.3571116 4.899604 15.1752206 8.504703 23.4472656 10.833984-.08055.0868-.156943.177616-.238281.263672l-6.955078-1.101563c-1.636281-.258558-3.172473.857958-3.431641 2.494141l-1.099609 6.935547c-5.001374 2.372787-10.5903339 3.71875-16.509766 3.71875-5.9192362 0-11.508616-1.345941-16.509766-3.71875l-1.099609-6.935547c-.259168-1.636183-1.79536-2.752699-3.431641-2.494141l-6.949218 1.101563c-.158288-.167436-.307598-.343413-.462891-.513672 8.577671-2.419353 16.379497-5.971629 23.3925781-10.675781zm-16.6875001 14.669922c1.341177.973818 1.638541 2.850708.664063 4.191406-.974425 1.340528-2.851219 1.637002-4.191407.662109-1.339293-.974312-1.635669-2.849614-.662109-4.189453.989287-1.362356 2.877261-1.617822 4.189453-.664062zm47.685547.664062c.97356 1.339839.677184 3.215141-.662109 4.189453-1.340188.974893-3.216982.678419-4.191407-.662109-.974478-1.340698-.677114-3.217588.664063-4.191406 1.312224-.953783 3.200189-.698262 4.189453.664062z"
        stroke-linejoin="round" transform="translate(53 53)" />
</svg>