<?xml version="1.0" encoding="UTF-8" standalone="no"?>
<svg
   version="1.1"
   height="106"
   width="106"
   id="svg92"
   sodipodi:docname="tokyo_rust.svg"
   inkscape:version="1.3 (0e150ed, 2023-07-21)"
   inkscape:export-filename="C:\Users\mate\Desktop\rust-meetup\tokyo_rust.png"
   inkscape:export-xdpi="463.69812"
   inkscape:export-ydpi="463.69812"
   xmlns:inkscape="http://www.inkscape.org/namespaces/inkscape"
   xmlns:sodipodi="http://sodipodi.sourceforge.net/DTD/sodipodi-0.dtd"
   xmlns:xlink="http://www.w3.org/1999/xlink"
   xmlns="http://www.w3.org/2000/svg"
   xmlns:svg="http://www.w3.org/2000/svg"
   xmlns:rdf="http://www.w3.org/1999/02/22-rdf-syntax-ns#"
   xmlns:cc="http://creativecommons.org/ns#"
   xmlns:dc="http://purl.org/dc/elements/1.1/">
  <metadata
     id="metadata98">
    <rdf:RDF>
      <cc:Work
         rdf:about="">
        <dc:format>image/svg+xml</dc:format>
        <dc:type
           rdf:resource="http://purl.org/dc/dcmitype/StillImage" />
      </cc:Work>
    </rdf:RDF>
  </metadata>
  <defs
     id="defs96">
    <mask
       maskUnits="userSpaceOnUse"
       id="mask5077">
      <g
         id="g5091"
         style="display:inline">
        <rect
           x="-60"
           y="-60"
           width="120"
           height="120"
           id="rect5079"
           style="fill:#ffffff;fill-opacity:1" />
        <circle
           id="circle5081"
           cy="-40"
           r="3"
           cx="0"
           style="display:inline;fill:#000000;fill-opacity:1" />
        <circle
           style="display:inline;fill:#000000;fill-opacity:1"
           cx="0"
           r="3"
           cy="-40"
           id="circle5083"
           transform="rotate(-72)" />
        <circle
           style="display:inline;fill:#000000;fill-opacity:1"
           cx="0"
           r="3"
           cy="-40"
           id="circle5085"
           transform="rotate(-144)" />
        <circle
           style="display:inline;fill:#000000;fill-opacity:1"
           cx="0"
           r="3"
           cy="-40"
           id="circle5087"
           transform="rotate(144)" />
        <circle
           style="display:inline;fill:#000000;fill-opacity:1"
           cx="0"
           r="3"
           cy="-40"
           id="circle5089"
           transform="rotate(72)" />
      </g>
    </mask>
  </defs>
  <sodipodi:namedview
     pagecolor="#ffffff"
     bordercolor="#666666"
     borderopacity="1"
     objecttolerance="10"
     gridtolerance="10"
     guidetolerance="10"
     inkscape:pageopacity="0"
     inkscape:pageshadow="2"
     inkscape:window-width="1352"
     inkscape:window-height="815"
     id="namedview94"
     showgrid="false"
     inkscape:zoom="3.1486264"
     inkscape:cx="26.360701"
     inkscape:cy="45.41663"
     inkscape:window-x="0"
     inkscape:window-y="35"
     inkscape:window-maximized="0"
     inkscape:current-layer="svg92"
     inkscape:showpageshadow="2"
     inkscape:pagecheckerboard="true"
     inkscape:deskcolor="#d1d1d1" />
  <ellipse
     style="fill:#f9f9f9;stroke-width:0.976608"
     id="path1"
     cx="53"
     cy="53"
     rx="52.999996"
     ry="53.077999" />
  <g
     transform="translate(53,53)"
     id="gear"
     style="display:inline"
     mask="url(#mask5077)">
    <circle
       r="43"
       id="circle2"
       cx="0"
       cy="0"
       style="display:inline;fill:none;stroke:#000000;stroke-width:9" />
    <g
       id="cogs"
       style="display:inline">
      <polygon
         id="cog"
         points="46,3 51,0 46,-3 "
         style="stroke:#000000;stroke-width:3;stroke-linejoin:round" />
      <use
         xlink:href="#cog"
         transform="rotate(11.25)"
         id="use5"
         x="0"
         y="0"
         width="100%"
         height="100%" />
      <use
         xlink:href="#cog"
         transform="rotate(22.5)"
         id="use7"
         x="0"
         y="0"
         width="100%"
         height="100%" />
      <use
         xlink:href="#cog"
         transform="rotate(33.75)"
         id="use9"
         x="0"
         y="0"
         width="100%"
         height="100%" />
      <use
         xlink:href="#cog"
         transform="rotate(45)"
         id="use11"
         x="0"
         y="0"
         width="100%"
         height="100%" />
      <use
         xlink:href="#cog"
         transform="rotate(56.25)"
         id="use13"
         x="0"
         y="0"
         width="100%"
         height="100%" />
      <use
         xlink:href="#cog"
         transform="rotate(67.5)"
         id="use15"
         x="0"
         y="0"
         width="100%"
         height="100%" />
      <use
         xlink:href="#cog"
         transform="rotate(78.75)"
         id="use17"
         x="0"
         y="0"
         width="100%"
         height="100%" />
      <use
         xlink:href="#cog"
         transform="rotate(90)"
         id="use19"
         x="0"
         y="0"
         width="100%"
         height="100%" />
      <use
         xlink:href="#cog"
         transform="rotate(101.25)"
         id="use21"
         x="0"
         y="0"
         width="100%"
         height="100%" />
      <use
         xlink:href="#cog"
         transform="rotate(112.5)"
         id="use23"
         x="0"
         y="0"
         width="100%"
         height="100%" />
      <use
         xlink:href="#cog"
         transform="rotate(123.75)"
         id="use25"
         x="0"
         y="0"
         width="100%"
         height="100%" />
      <use
         xlink:href="#cog"
         transform="rotate(135)"
         id="use27"
         x="0"
         y="0"
         width="100%"
         height="100%" />
      <use
         xlink:href="#cog"
         transform="rotate(146.25)"
         id="use29"
         x="0"
         y="0"
         width="100%"
         height="100%" />
      <use
         xlink:href="#cog"
         transform="rotate(157.5)"
         id="use31"
         x="0"
         y="0"
         width="100%"
         height="100%" />
      <use
         xlink:href="#cog"
         transform="rotate(168.75)"
         id="use33"
         x="0"
         y="0"
         width="100%"
         height="100%" />
      <use
         xlink:href="#cog"
         transform="scale(-1)"
         id="use35"
         x="0"
         y="0"
         width="100%"
         height="100%" />
      <use
         xlink:href="#cog"
         transform="rotate(-168.75)"
         id="use37"
         x="0"
         y="0"
         width="100%"
         height="100%" />
      <use
         xlink:href="#cog"
         transform="rotate(-157.5)"
         id="use39"
         x="0"
         y="0"
         width="100%"
         height="100%" />
      <use
         xlink:href="#cog"
         transform="rotate(-146.25)"
         id="use41"
         x="0"
         y="0"
         width="100%"
         height="100%" />
      <use
         xlink:href="#cog"
         transform="rotate(-135)"
         id="use43"
         x="0"
         y="0"
         width="100%"
         height="100%" />
      <use
         xlink:href="#cog"
         transform="rotate(-123.75)"
         id="use45"
         x="0"
         y="0"
         width="100%"
         height="100%" />
      <use
         xlink:href="#cog"
         transform="rotate(-112.5)"
         id="use47"
         x="0"
         y="0"
         width="100%"
         height="100%" />
      <use
         xlink:href="#cog"
         transform="rotate(-101.25)"
         id="use49"
         x="0"
         y="0"
         width="100%"
         height="100%" />
      <use
         xlink:href="#cog"
         transform="rotate(-90)"
         id="use51"
         x="0"
         y="0"
         width="100%"
         height="100%" />
      <use
         xlink:href="#cog"
         transform="rotate(-78.75)"
         id="use53"
         x="0"
         y="0"
         width="100%"
         height="100%" />
      <use
         xlink:href="#cog"
         transform="rotate(-67.5)"
         id="use55"
         x="0"
         y="0"
         width="100%"
         height="100%" />
      <use
         xlink:href="#cog"
         transform="rotate(-56.25)"
         id="use57"
         x="0"
         y="0"
         width="100%"
         height="100%" />
      <use
         xlink:href="#cog"
         transform="rotate(-45)"
         id="use59"
         x="0"
         y="0"
         width="100%"
         height="100%" />
      <use
         xlink:href="#cog"
         transform="rotate(-33.75)"
         id="use61"
         x="0"
         y="0"
         width="100%"
         height="100%" />
      <use
         xlink:href="#cog"
         transform="rotate(-22.5)"
         id="use63"
         x="0"
         y="0"
         width="100%"
         height="100%" />
      <use
         xlink:href="#cog"
         transform="rotate(-11.25)"
         id="use65"
         x="0"
         y="0"
         width="100%"
         height="100%" />
    </g>
    <g
       id="mounts"
       style="display:inline">
      <polygon
         id="mount"
         points="-7,-42 0,-35 7,-42 "
         style="stroke:#000000;stroke-width:6;stroke-linejoin:round" />
      <use
         xlink:href="#mount"
         transform="rotate(72)"
         id="use69"
         x="0"
         y="0"
         width="100%"
         height="100%" />
      <use
         xlink:href="#mount"
         transform="rotate(144)"
         id="use71"
         x="0"
         y="0"
         width="100%"
         height="100%" />
      <use
         xlink:href="#mount"
         transform="rotate(-144)"
         id="use73"
         x="0"
         y="0"
         width="100%"
         height="100%" />
      <use
         xlink:href="#mount"
         transform="rotate(-72)"
         id="use75"
         x="0"
         y="0"
         width="100%"
         height="100%" />
    </g>
  </g>
  <g
     aria-label="æ±"
     transform="matrix(1.2138098,0,0,1.0508669,-6.5482749,-7.5125247)"
     style="font-style:normal;font-variant:normal;font-weight:bold;font-stretch:normal;font-size:59.5495491px;line-height:1.25;font-family:Meiryo;-inkscape-font-specification:'Meiryo Bold';letter-spacing:0px;word-spacing:0px;fill:#000000;fill-opacity:1;stroke:none;stroke-width:0.9304617"
     id="text62">
    <path
       d="m 44.890425,72.108008 c -6.455078,5.001232 -13.714618,8.64554 -21.778619,10.932925 l -3.111231,-6.455078 c 6.532616,-1.957846 13.142771,-5.233846 19.830465,-9.828001 h -8.845892 c -3.428654,0 -4.413188,-1.288181 -4.413188,-5.444655 v -10.88931 c 0,-4.310754 1.01515,-5.444655 4.565078,-5.444655 H 44.832271 V 42.129695 H 20.875865 v -8.695242 h 23.956406 v -4.012616 h 8.170617 v 4.012616 h 24.150455 v 8.695242 H 53.002888 v 2.849539 h 14.153195 c 3.947581,0 4.717732,0.958377 4.717732,5.444655 v 10.88931 c 0,4.148944 -0.887151,5.444655 -4.742829,5.444655 h -9.766559 c 6.784617,4.439077 13.908464,7.59877 21.371543,9.479078 l -3.896309,7.036617 C 67.085814,81.121856 59.806889,77.429086 53.002888,72.195239 v 12.619387 h -8.112463 z m 8.112463,-18.55108 h 10.903848 v -1.584692 c 0,-1.228254 -0.323751,-1.584693 -1.240856,-1.584693 h -9.662992 z m -18.638311,0 h 10.496771 v -3.169385 h -9.16394 c -1.032186,0 -1.332831,0.38465 -1.332831,1.584693 z m 10.496771,4.652309 H 34.364577 v 1.599231 c 0,1.193158 0.308756,1.599231 1.36977,1.599231 h 9.127001 z m 19.045388,0 H 53.002888 v 3.198462 h 9.626053 c 0.93722,0 1.277795,-0.366981 1.277795,-1.599231 z"
       style="stroke-width:0.9304617"
       id="path64"
       inkscape:connector-curvature="0"
       sodipodi:nodetypes="ccccssssccccccccccccsssscccccccccsscccccsscccsscccccssc" />
  </g>
</svg>
